<svg xmlns="http://www.w3.org/2000/svg" viewBox="0 0 15.31 17.46">
    <defs>
        <style>.cls-1{fill:#fff;}</style>
    </defs>
    <g id="Capa_2" data-name="Capa 2">
        <g id="Capa_1-2" data-name="Capa 1">
            <path class="cls-1"
                  d="M5.3,17.46c-.39-.06-.78-.09-1.16-.18A5.38,5.38,0,0,1,4.56,6.72a5.09,5.09,0,0,1,1.71,0V9.59l-.42-.08A2.57,2.57,0,1,0,8,12.56a3.67,3.67,0,0,0,0-.66C8,8,8.05,4.14,8.05.25c0-.08,0-.17,0-.25h2.83a4.39,4.39,0,0,0,4.26,4.37c.15,0,.16.06.16.18V7.21a7.31,7.31,0,0,1-4.42-1.49v.21c0,2,0,4,0,6a7.55,7.55,0,0,1-.05.83,5.4,5.4,0,0,1-4.25,4.58c-.32.06-.65.09-1,.14Z"/>
        </g>
    </g>
</svg>