<svg xmlns="http://www.w3.org/2000/svg" viewBox="0 0 20.52 20.52"><defs><style>.cls-1{fill:#fff;}</style></defs><g id="Capa_2" data-name="Capa 2"><g id="Capa_1-2" data-name="Capa 1"><path class="cls-1" d="M15.35,20.52H5.18l-.2,0a5,5,0,0,1-1.6-.41A5.44,5.44,0,0,1,0,14.92C0,11.81,0,8.71,0,5.6A5.27,5.27,0,0,1,.72,2.86,5.45,5.45,0,0,1,5.67,0c3.06,0,6.13,0,9.19,0a5.56,5.56,0,0,1,5.49,4.22c.09.31.11.63.17.94V15.35c0,.22-.05.43-.1.65a5.51,5.51,0,0,1-4.13,4.35C16,20.43,15.67,20.46,15.35,20.52ZM4.66,10.24a5.61,5.61,0,1,0,5.62-5.59A5.63,5.63,0,0,0,4.66,10.24ZM16,6a1.66,1.66,0,1,0-1.66-1.65A1.66,1.66,0,0,0,16,6Z"/><path class="cls-1" d="M10.27,14.67a4.41,4.41,0,1,1,4.4-4.41A4.42,4.42,0,0,1,10.27,14.67Z"/><path class="cls-1" d="M16.46,4.31a.47.47,0,0,1-.44.46.46.46,0,0,1-.46-.45A.46.46,0,0,1,16,3.87.47.47,0,0,1,16.46,4.31Z"/></g></g></svg>