<svg xmlns="http://www.w3.org/2000/svg" viewBox="0 0 11.01 20.4"><defs><style>.cls-1{fill:#fff;}</style></defs><g id="Capa_2" data-name="Capa 2"><g id="Capa_1-2" data-name="Capa 1"><path class="cls-1" d="M3.07,11.51H.55c-.4,0-.54-.12-.54-.51C0,10,0,8.91,0,7.86c0-.39.14-.51.55-.51H3.07V7c0-.94,0-1.89.06-2.83A4.5,4.5,0,0,1,7.54,0c1,0,2,0,3,0,.33,0,.47.14.47.47q0,1.49,0,3c0,.34-.14.47-.5.48l-2,0C7.7,4,7.39,4.26,7.38,5s0,1.48,0,2.24l.28,0h2.56c.56,0,.68.12.68.67v2.94c0,.46-.11.57-.57.57H7.38v8.14c0,.7-.08.78-.79.78H3.72c-.53,0-.65-.12-.65-.64V11.51Z"/></g></g></svg>