<svg xmlns="http://www.w3.org/2000/svg" viewBox="0 0 23.6 19.33"><defs><style>.cls-1{fill:#fff;}</style></defs><g id="Capa_2" data-name="Capa 2"><g id="Capa_1-2" data-name="Capa 1"><path class="cls-1" d="M0,17.2a10.18,10.18,0,0,0,7.07-2.06,5,5,0,0,1-4.54-3.42H4.64v-.09A4.91,4.91,0,0,1,1.44,9.12a4.62,4.62,0,0,1-.57-2.3A5.12,5.12,0,0,0,3,7.39C.92,5.58.28,3.47,1.55.89A13.84,13.84,0,0,0,11.55,6c0-.26-.05-.47-.07-.69a4.86,4.86,0,0,1,8.2-3.94.46.46,0,0,0,.5.14,11,11,0,0,0,2.51-1L23,.38A5.21,5.21,0,0,1,21,3l.85-.16c.29-.07.58-.15.86-.24s.56-.2.84-.3l.06.06c-.36.44-.7.89-1.09,1.29a13.26,13.26,0,0,1-1.12,1,.48.48,0,0,0-.21.43,13.83,13.83,0,0,1-6.63,12.26,13.17,13.17,0,0,1-8,1.91,13.62,13.62,0,0,1-6.35-2Z"/></g></g></svg>